<svg width="120" height="120" viewBox="0 0 120 120" fill="none" xmlns="http://www.w3.org/2000/svg"><rect width="120" height="120" rx="32" fill="#222"/><g filter="url(#sunny__a)"><path d="M87.422 103.945c0 .971-12.277 1.758-27.422 1.758-15.145 0-27.422-.787-27.422-1.758s12.277-1.757 27.422-1.757c15.145 0 27.422.786 27.422 1.757Z" fill="#000"/></g><path d="M85.98 60c0 14.465-11.68 26.191-26.086 26.191-14.407 0-26.085-11.726-26.085-26.191 0-14.465 11.678-26.192 26.085-26.192S85.979 45.535 85.979 60Z" fill="url(#sunny__b)"/><g filter="url(#sunny__c)"><path fill-rule="evenodd" clip-rule="evenodd" d="M60 94.475c19.158 0 34.688-15.483 34.688-34.581 0-19.098-15.53-34.581-34.688-34.581s-34.688 15.483-34.688 34.58c0 19.099 15.53 34.582 34.688 34.582Zm0 .235c19.287 0 34.922-15.588 34.922-34.816S79.287 25.078 60 25.078 25.078 40.666 25.078 59.894 40.713 94.71 60 94.71Z" fill="#FFD787"/></g><defs><filter id="sunny__a" x="26.953" y="96.563" width="66.094" height="14.766" filterUnits="userSpaceOnUse" color-interpolation-filters="sRGB"><feFlood flood-opacity="0" result="BackgroundImageFix"/><feBlend in="SourceGraphic" in2="BackgroundImageFix" result="shape"/><feGaussianBlur stdDeviation="2.813" result="effect1_foregroundBlur_216_486"/></filter><filter id="sunny__c" x="22.266" y="22.266" width="75.469" height="75.256" filterUnits="userSpaceOnUse" color-interpolation-filters="sRGB"><feFlood flood-opacity="0" result="BackgroundImageFix"/><feBlend in="SourceGraphic" in2="BackgroundImageFix" result="shape"/><feGaussianBlur stdDeviation="1.406" result="effect1_foregroundBlur_216_486"/></filter><linearGradient id="sunny__b" x1="70.402" y1="36.233" x2="48.275" y2="86.119" gradientUnits="userSpaceOnUse"><stop stop-color="#FFD88B"/><stop offset="1" stop-color="#FFA900"/></linearGradient></defs></svg>